PathFileType	4	(X/Y/Z)	Walk6.trc
DataRate	CameraRate	NumFrames	NumMarkers	Units	OrigDataRate	OrigDataStartFrame	OrigNumFrames
200.000000	200.000000	8	59	mm	200.000000	397	490
Frame#	Times		LFHD		RFHD		CLAV		RBack		RACR1		RUA1		RFA1		RWRR		RWRU		RCAR		LACR1		LUA1		LFA1		LWRU		RTH1		RTH3		LTH3		LTH2		LTH4		LLFC		LWRR		LTH1		T10		RElbow		LASI		C7		RTH2		LTB2		LToe		LBHD		LTB4		RTH4		STRN		LMMAL		RTB1		LMT1		RTB2		RBHD		LTB1		LCAL		LCAR		LElbow		LTB3		RPSI		RElbowM		LElbowM		RLFC		LMT5		LLMAL		LPSI		RTB4		RMT1		RASI		RTB3		RCAL		RMT5		RLMAL		RToe		RMMAL
			X1	Y1	Z1	X2	Y2	Z2	X3	Y3	Z3	X4	Y4	Z4	X5	Y5	Z5	X6	Y6	Z6	X7	Y7	Z7	X8	Y8	Z8	X9	Y9	Z9	X10	Y10	Z10	X11	Y11	Z11	X12	Y12	Z12	X13	Y13	Z13	X14	Y14	Z14	X15	Y15	Z15	X16	Y16	Z16	X17	Y17	Z17	X18	Y18	Z18	X19	Y19	Z19	X20	Y20	Z20	X21	Y21	Z21	X22	Y22	Z22	X23	Y23	Z23	X24	Y24	Z24	X25	Y25	Z25	X26	Y26	Z26	X27	Y27	Z27	X28	Y28	Z28	X29	Y29	Z29	X30	Y30	Z30	X31	Y31	Z31	X32	Y32	Z32	X33	Y33	Z33	X34	Y34	Z34	X35	Y35	Z35	X36	Y36	Z36	X37	Y37	Z37	X38	Y38	Z38	X39	Y39	Z39	X40	Y40	Z40	X41	Y41	Z41	X42	Y42	Z42	X43	Y43	Z43	X44	Y44	Z44	X45	Y45	Z45	X46	Y46	Z46	X47	Y47	Z47	X48	Y48	Z48	X49	Y49	Z49	X50	Y50	Z50	X51	Y51	Z51	X52	Y52	Z52	X53	Y53	Z53	X54	Y54	Z54	X55	Y55	Z55	X56	Y56	Z56	X57	Y57	Z57	X58	Y58	Z58	X59	Y59	Z59

397	1.985	414.78	1429.7	-73.336	407.58	1419.9	22.715	392.54	1176	-35.07	208.98	1140.8	89.116	328.81	1206.7	146.34	349.61	1069.6	229.96	446.05	838.33	262.63	483.1	748.38	222.6	448.4	735.66	284.35	508.1	696.47	273.86	313.05	1200.1	-222.24	319.61	1033.5	-289.27	319.83	827.47	-344.9	295.9	719.1	-371.5	297.61	628.21	170.01	261.55	467.54	115.65	370.86	481.42	-199.95	397.88	585.1	-201.54	350.06	562.05	-229.23	417.49	403.36	-163.07	348.46	715.69	-336.55	329.18	643.23	-250.55	165.04	1063.3	-17.847	364.98	942.64	265.78	362.45	812.93	-194.3	253.12	1261.4	-33.137	333.54	542.48	124.56	468.94	233.5	-156.23	659.22	118.53	-114.06	291.59	1345.5	-100.68	492.81	239.68	-99.384	277.59	548.15	145.89	444	1068.1	-30.13	517.3	94.963	-54.077	240.94	276.4	38.991	625.8	98.291	-82.415	173.58	202.8	76.001	282.57	1340.3	31.616	472.73	325.14	-101.64	467.15	39.249	-79.932	331.47	669.64	-384.35	274.03	921.48	-304.8	518.95	160.41	-99.665	122.51	841.67	27.092	310.78	902.32	202.3	248.62	897.11	-236.67	216.35	386.81	92.877	587.94	61.713	-155.02	495.03	70.531	-129.8	111.78	835.28	-76.913	208.69	196.04	25.857	226.31	28.102	-19.751	385.28	812.46	126.13	181.56	116.47	12.699	59.459	47.705	-1.84	197.25	23.755	72.22	119.28	66.257	46.108	283.66	28.866	20.27	133.26	73.611	-37.077
398	1.99	420.24	1428.8	-73.841	412.98	1419	22.222	398.02	1175.2	-35.325	214.36	1139.9	88.661	334.07	1206	145.96	355.34	1069	229.66	451.85	837.93	262.57	488.94	747.97	222.64	454.3	735.29	284.44	514.02	696.13	273.92	318.61	1199	-222.64	325.19	1032.4	-289.63	325.01	826.43	-345.47	300.56	718.18	-372.16	302.49	627.72	170.12	265.12	467.36	115.7	375.94	479.88	-199.77	403.21	583.48	-201.26	355.38	560.57	-229.09	423.14	402.47	-162.71	353.31	714.51	-337.52	334.73	641.82	-250.38	170.59	1062.2	-18.309	370.72	942.19	265.69	368.48	811.61	-194.22	258.43	1260.4	-33.684	337.74	541.71	124.7	477.47	233.54	-155.96	669.9	120.9	-113.41	297.05	1344.6	-101.21	500.94	239.92	-98.975	281.79	547.79	145.97	449.71	1067.4	-29.898	527.56	95.408	-54.041	243.2	276.05	39.02	636.32	100.36	-81.948	175.14	203.05	75.984	287.93	1339.4	31.11	479.46	325.11	-101.02	478.34	38.911	-80.258	335.93	668.7	-385.39	279.67	920.4	-304.99	528.39	161.01	-99.409	128.24	841	26.494	316.44	901.7	202.36	254.42	896.01	-236.87	219.47	386.8	92.854	599.37	63.192	-154.71	506.05	70.807	-129.92	117.9	834.08	-77.536	210.22	195.99	25.866	226.4	28.117	-19.758	391.22	811.62	126.29	182.33	116.68	12.704	59.617	48.944	-1.9546	197.23	23.779	72.001	119.63	66.98	46.065	283.7	28.773	20.345	133.7	74.267	-37.128
399	1.995	425.71	1427.8	-74.358	418.38	1418.1	21.715	403.51	1174.5	-35.613	219.73	1138.9	88.158	339.31	1205.3	145.54	361.06	1068.4	229.33	457.6	837.51	262.49	494.72	747.54	222.68	460.14	734.91	284.53	519.88	695.78	274	324.16	1197.9	-223.08	330.76	1031.3	-290.04	330.26	825.37	-346.04	305.36	717.24	-372.8	307.41	627.27	170.26	268.75	467.22	115.79	381.23	478.46	-199.6	408.64	582	-200.98	360.84	559.19	-228.96	428.95	401.62	-162.35	358.27	713.32	-338.44	340.32	640.49	-250.2	176.16	1061.1	-18.818	376.42	941.73	265.57	374.53	810.24	-194.17	263.73	1259.4	-34.269	341.99	540.95	124.92	485.64	233.46	-155.64	679.81	122.68	-112.59	302.5	1343.7	-101.75	508.73	239.99	-98.514	286.05	547.47	146.08	455.42	1066.8	-29.706	537.03	95.677	-53.882	245.54	275.7	39.056	645.99	101.93	-81.325	176.77	203.33	75.999	293.28	1338.6	30.586	486.11	324.95	-100.39	488.6	38.582	-80.462	340.51	667.73	-386.37	285.36	919.31	-305.21	537.24	161.4	-99.055	133.99	840.37	25.879	322.07	901.09	202.39	260.26	894.92	-237.09	222.7	386.81	92.859	609.91	64.266	-154.23	516.22	70.967	-129.91	124.06	832.93	-78.173	211.8	195.95	25.9	226.47	28.137	-19.758	397.16	810.86	126.49	183.13	116.93	12.737	59.792	50.258	-2.0104	197.21	23.797	71.797	120	67.756	46.061	283.73	28.685	20.408	134.14	74.976	-37.142
400	2	431.18	1426.9	-74.887	423.78	1417.3	21.196	408.99	1173.7	-35.938	225.1	1138	87.606	344.52	1204.6	145.09	366.76	1067.7	228.98	463.3	837.07	262.4	500.44	747.08	222.73	465.91	734.52	284.63	525.67	695.4	274.1	329.71	1196.8	-223.56	336.32	1030.2	-290.5	335.6	824.29	-346.61	310.28	716.28	-373.42	312.38	626.85	170.43	272.45	467.1	115.92	386.77	477.17	-199.42	414.21	580.68	-200.71	366.45	557.91	-228.82	434.91	400.82	-161.99	363.33	712.13	-339.31	345.97	639.23	-250	181.74	1060	-19.374	382.11	941.27	265.42	380.58	808.86	-194.15	269.03	1258.4	-34.893	346.33	540.23	125.22	493.44	233.24	-155.26	688.97	123.8	-111.6	307.96	1342.8	-102.31	516.18	239.88	-98.002	290.37	547.16	146.23	461.13	1066.2	-29.56	545.72	95.742	-53.6	247.96	275.34	39.104	654.84	102.96	-80.548	178.49	203.61	76.05	298.64	1337.8	30.044	492.68	324.64	-99.765	497.94	38.237	-80.548	345.24	666.73	-387.29	291.09	918.2	-305.45	545.52	161.55	-98.602	139.77	839.77	25.251	327.65	900.49	202.41	266.16	893.83	-237.34	226.05	386.81	92.898	619.54	64.897	-153.59	525.54	70.982	-129.76	130.26	831.83	-78.815	213.45	195.93	25.963	226.54	28.163	-19.752	403.08	810.17	126.72	183.96	117.22	12.804	59.989	51.653	-1.9966	197.21	23.81	71.615	120.4	68.585	46.103	283.75	28.602	20.459	134.59	75.743	-37.114
401	2.005	436.66	1426	-75.426	429.18	1416.4	20.665	414.48	1172.9	-36.3	230.47	1137	87.004	349.72	1203.8	144.61	372.45	1067.1	228.6	468.96	836.62	262.29	506.1	746.6	222.79	471.61	734.11	284.73	531.38	695	274.22	335.25	1195.7	-224.08	341.87	1029.1	-291.02	341.04	823.21	-347.17	315.34	715.3	-374.03	317.42	626.47	170.63	276.26	466.99	116.09	392.54	476.02	-199.21	419.92	579.52	-200.44	372.23	556.74	-228.66	441	400.05	-161.63	368.51	710.93	-340.14	351.68	638.07	-249.8	187.34	1058.9	-19.976	387.76	940.82	265.24	386.65	807.45	-194.17	274.32	1257.4	-35.557	350.75	539.52	125.59	500.87	232.87	-154.81	697.4	124.24	-110.45	313.42	1341.9	-102.9	523.3	239.58	-97.441	294.78	546.88	146.4	466.85	1065.6	-29.464	553.64	95.582	-53.199	250.48	274.97	39.167	662.89	103.42	-79.624	180.29	203.91	76.141	303.99	1337	29.483	499.17	324.18	-99.137	506.35	37.861	-80.519	350.1	665.71	-388.16	296.87	917.08	-305.72	553.24	161.46	-98.055	145.58	839.21	24.616	333.2	899.89	202.4	272.11	892.75	-237.6	229.56	386.8	92.975	628.29	65.06	-152.79	534.02	70.831	-129.49	136.49	830.8	-79.455	215.16	195.93	26.058	226.59	28.197	-19.74	408.98	809.55	126.97	184.84	117.53	12.907	60.212	53.138	-1.905	197.21	23.818	71.457	120.84	69.473	46.193	283.78	28.523	20.494	135.06	76.572	-37.039
402	2.01	442.13	1425.1	-75.974	434.58	1415.6	20.124	419.98	1172.2	-36.703	235.84	1136	86.351	354.89	1203.1	144.09	378.11	1066.5	228.19	474.57	836.16	262.16	511.7	746.09	222.85	477.25	733.69	284.83	537.02	694.59	274.36	340.79	1194.6	-224.64	347.43	1028	-291.58	346.56	822.11	-347.73	320.52	714.29	-374.62	322.53	626.1	170.84	280.19	466.89	116.3	398.56	475.01	-198.99	425.79	578.53	-200.17	378.18	555.69	-228.49	447.23	399.32	-161.26	373.79	709.73	-340.91	357.49	637	-249.59	192.97	1057.8	-20.623	393.38	940.36	265.03	392.74	806.04	-194.22	279.62	1256.4	-36.259	355.28	538.84	126.02	507.95	232.35	-154.31	705.12	123.97	-109.14	318.88	1341	-103.5	530.1	239.1	-96.831	299.28	546.62	146.6	472.56	1065	-29.421	560.81	95.187	-52.687	253.11	274.58	39.251	670.15	103.3	-78.562	182.2	204.22	76.275	309.35	1336.2	28.901	505.58	323.58	-98.508	513.86	37.447	-80.384	355.1	664.66	-388.96	302.69	915.96	-306.02	560.4	161.12	-97.416	151.41	838.68	23.98	338.72	899.3	202.37	278.11	891.68	-237.89	233.22	386.78	93.096	636.17	64.744	-151.85	541.67	70.505	-129.1	142.75	829.83	-80.088	216.95	195.93	26.188	226.64	28.238	-19.721	414.86	809.02	127.24	185.76	117.89	13.049	60.467	54.724	-1.7313	197.23	23.821	71.329	121.3	70.424	46.334	283.8	28.449	20.512	135.55	77.47	-36.915
403	2.015	447.61	1424.3	-76.529	439.99	1414.7	19.574	425.49	1171.5	-37.148	241.22	1135	85.647	360.06	1202.4	143.54	383.73	1065.9	227.75	480.12	835.7	262.02	517.24	745.57	222.91	482.81	733.26	284.92	542.59	694.16	274.51	346.34	1193.6	-225.25	352.99	1026.9	-292.18	352.18	821.01	-348.27	325.85	713.26	-375.19	327.71	625.76	171.06	284.27	466.79	116.55	404.81	474.15	-198.74	431.82	577.71	-199.91	384.31	554.76	-228.29	453.56	398.63	-160.89	379.18	708.54	-341.63	363.39	636.03	-249.37	198.62	1056.7	-21.314	398.97	939.91	264.79	398.85	804.64	-194.31	284.92	1255.4	-37.001	359.93	538.19	126.5	514.68	231.69	-153.76	712.18	123	-107.69	324.35	1340.2	-104.12	536.58	238.44	-96.175	303.89	546.36	146.82	478.28	1064.5	-29.437	567.28	94.56	-52.073	255.86	274.18	39.363	676.68	102.59	-77.377	184.22	204.54	76.453	314.71	1335.4	28.298	511.92	322.85	-97.877	520.49	37.001	-80.154	360.24	663.59	-389.7	308.56	914.83	-306.35	567.04	160.54	-96.691	157.27	838.17	23.347	344.19	898.71	202.31	284.16	890.63	-238.21	237.05	386.74	93.265	643.21	63.957	-150.79	548.54	70.007	-128.6	149.03	828.93	-80.707	218.82	195.95	26.355	226.67	28.288	-19.696	420.73	808.57	127.52	186.73	118.28	13.232	60.762	56.424	-1.4753	197.27	23.821	71.231	121.81	71.443	46.527	283.81	28.379	20.51	136.07	78.442	-36.739
404	2.02	453.09	1423.5	-77.093	445.39	1413.9	19.014	431	1170.8	-37.635	246.6	1134	84.893	365.23	1201.7	142.95	389.31	1065.3	227.29	485.63	835.23	261.87	522.73	745.03	222.98	488.3	732.82	285.01	548.07	693.73	274.68	351.89	1192.5	-225.9	358.56	1025.9	-292.82	357.88	819.9	-348.8	331.3	712.22	-375.74	332.98	625.44	171.29	288.52	466.68	116.85	411.27	473.42	-198.45	438.01	577.05	-199.65	390.61	553.95	-228.06	460	397.97	-160.52	384.69	707.35	-342.29	369.4	635.17	-249.14	204.29	1055.7	-22.046	404.52	939.46	264.52	405	803.26	-194.44	290.24	1254.4	-37.782	364.71	537.57	127	521.09	230.89	-153.15	718.62	121.32	-106.12	329.83	1339.4	-104.77	542.77	237.61	-95.476	308.64	546.12	147.07	484	1064	-29.512	573.08	93.71	-51.371	258.75	273.74	39.51	682.52	101.29	-76.085	186.35	204.88	76.68	320.08	1334.6	27.671	518.17	322	-97.243	526.29	36.536	-79.844	365.53	662.51	-390.38	314.48	913.71	-306.71	573.19	159.74	-95.886	163.17	837.68	22.725	349.64	898.14	202.22	290.25	889.6	-238.54	241.08	386.67	93.489	649.45	62.718	-149.64	554.65	69.348	-128	155.34	828.11	-81.305	220.8	195.97	26.562	226.7	28.346	-19.666	426.59	808.2	127.8	187.76	118.71	13.456	61.106	58.253	-1.1406	197.32	23.82	71.164	122.38	72.538	46.77	283.82	28.313	20.487	136.62	79.497	-36.512
